
<svg xmlns="http://www.w3.org/2000/svg" version="1.1" xmlns:xlink="http://www.w3.org/1999/xlink" preserveAspectRatio="none" x="0px" y="0px" width="200px" height="200px" viewBox="0 0 200 200">
<defs>
<g id="Layer0_0_FILL">
<path fill="#FF00FF" fill-opacity="0.2" stroke="none" d="
M 200 200
L 200 0 100 100 200 200
M 0 200
L 200 200 100 100 0 200
M 100 100
L 0 0 0 200 100 100
M 0 0
L 100 100 200 0 0 0 Z"/>
</g>

<path id="Layer0_0_1_STROKES" stroke="#FF00FF" stroke-width="1" stroke-linejoin="round" stroke-linecap="round" fill="none" d="
M 0 0
L 100 100 200 0
M 0 200
L 100 100 200 200"/>

<path id="Layer0_0_2_STROKES" stroke="#FF00FF" stroke-width="2" stroke-linejoin="round" stroke-linecap="round" fill="none" d="
M 200 0
L 0 0 0 200
M 200 0
L 200 200 0 200"/>
</defs>

<g transform="matrix( 1, 0, 0, 1, 0,0) ">
<use xlink:href="#Layer0_0_FILL"/>

<use xlink:href="#Layer0_0_1_STROKES"/>

<use xlink:href="#Layer0_0_2_STROKES"/>
</g>
</svg>
