
<svg xmlns="http://www.w3.org/2000/svg" version="1.1" xmlns:xlink="http://www.w3.org/1999/xlink" preserveAspectRatio="none" x="0px" y="0px" width="244px" height="80px" viewBox="0 0 244 80">
<defs>
<g id="Layer0_0_FILL">
<path fill="#000000" fill-opacity="0.6980392156862745" stroke="none" d="
M 162 80
L 162 0 82 0 82 80 162 80
M 84 78
L 84 2 160 2 160 78 84 78
M 244 80
L 244 0 164 0 164 80 244 80
M 166 78
L 166 2 242 2 242 78 166 78
M 80 0
L 0 0 0 80 80 80 80 0
M 2 2
L 78 2 78 78 2 78 2 2 Z"/>

<path fill="#FFFFFF" fill-opacity="0.6980392156862745" stroke="none" d="
M 84 2
L 84 78 160 78 160 2 84 2
M 156 74
L 88 74 88 6 156 6 156 74
M 166 2
L 166 78 242 78 242 2 166 2
M 238 74
L 170 74 170 6 238 6 238 74
M 78 2
L 2 2 2 78 78 78 78 2
M 6 74
L 6 6 74 6 74 74 6 74 Z"/>

<path fill="#FFFFFF" fill-opacity="0.8980392156862745" stroke="none" d="
M 88 74
L 156 74 156 6 88 6 88 74 Z"/>

<path fill="#FFFFFF" stroke="none" d="
M 170 74
L 238 74 238 6 170 6 170 74 Z"/>

<path fill="#FFFFFF" fill-opacity="0.8" stroke="none" d="
M 6 6
L 6 74 74 74 74 6 6 6 Z"/>
</g>
</defs>

<g transform="matrix( 1, 0, 0, 1, 0,0) ">
<use xlink:href="#Layer0_0_FILL"/>
</g>
</svg>
