
<svg xmlns="http://www.w3.org/2000/svg" version="1.1" xmlns:xlink="http://www.w3.org/1999/xlink" preserveAspectRatio="none" x="0px" y="0px" width="80px" height="80px" viewBox="0 0 80 80">
<defs>
<g id="Layer0_0_FILL">
<path fill="#95B3D1" stroke="none" d="
M 315 160
L 235 160 235 240 315 240 315 160 Z"/>
</g>

<g id="Layer0_0_MEMBER_0_FILL">
<path fill="#000000" fill-opacity="0.4" stroke="none" d="
M 315 240
L 305 230 245 230 235 240 315 240 Z"/>

<path fill="#FFFFFF" fill-opacity="0.09803921568627451" stroke="none" d="
M 245 170
L 235 160 235 240 245 230 245 170 Z"/>

<path fill="#95B3D1" stroke="none" d="
M 305 170
L 245 170 245 230 305 230 305 170 Z"/>

<path fill="#000000" fill-opacity="0.2" stroke="none" d="
M 315 160
L 305 170 305 230 315 240 315 160 Z"/>

<path fill="#FFFFFF" fill-opacity="0.2980392156862745" stroke="none" d="
M 305 170
L 315 160 235 160 245 170 305 170 Z"/>
</g>
</defs>

<g transform="matrix( 1, 0, 0, 1, -235,-160) ">
<use xlink:href="#Layer0_0_FILL"/>
</g>

<g transform="matrix( 1, 0, 0, 1, -235,-160) ">
<use xlink:href="#Layer0_0_MEMBER_0_FILL"/>
</g>
</svg>
