
<svg xmlns="http://www.w3.org/2000/svg" version="1.1" xmlns:xlink="http://www.w3.org/1999/xlink" preserveAspectRatio="none" x="0px" y="0px" width="96px" height="96px" viewBox="0 0 96 96">
<defs>
<g id="Move_0_Layer0_0_FILL">
<path fill="#FFFFFF" stroke="none" d="
M 31.1 59.15
L 22.1 74.8 14.2 70.25 20.85 95 45.6 88.4 37.7 83.8 46.75 68.15 31.1 59.15
M 7.6 45.6
L 12.15 37.7 27.8 46.75 36.8 31.1 21.2 22.1 25.7 14.25 1 20.85 7.6 45.6
M 50.4 7.65
L 58.25 12.15 49.25 27.8 64.85 36.8 73.9 21.2 81.7 25.7 75.1 1 50.4 7.65
M 95 75.1
L 88.35 50.4 83.8 58.25 68.15 49.25 59.15 64.85 74.8 73.9 70.25 81.75 95 75.1 Z"/>
</g>
</defs>

<g transform="matrix( 1, 0, 0, 1, 1,1) ">
<g transform="matrix( 1, 0, 0, 1, 0,0) ">
<use xlink:href="#Move_0_Layer0_0_FILL"/>
</g>
</g>
</svg>
